<?xml version="1.0" standalone="no"?>
<!DOCTYPE svg PUBLIC "-//W3C//DTD SVG 20010904//EN"
 "http://www.w3.org/TR/2001/REC-SVG-20010904/DTD/svg10.dtd">
<svg version="1.0" xmlns="http://www.w3.org/2000/svg"
 width="276.000000pt" height="276.000000pt" viewBox="0 0 276.000000 276.000000"
 preserveAspectRatio="xMidYMid meet">
<metadata>
Created by potrace 1.14, written by Peter Selinger 2001-2017
</metadata>
<g transform="translate(0.000000,276.000000) scale(0.100000,-0.100000)"
fill="#000000" stroke="none">
<path d="M65 2750 c-4 -6 -10 -8 -15 -5 -5 3 -18 -8 -29 -24 -21 -29 -21 -29
-21 -1334 0 -807 4 -1315 10 -1331 22 -59 -52 -56 1370 -56 1414 0 1342 -3
1368 55 15 33 18 2609 2 2649 -22 59 52 56 -1374 56 -873 0 -1307 -3 -1311
-10z"/>
</g>
</svg>
