<svg width="218" height="18" viewBox="0 0 218 18" fill="none" xmlns="http://www.w3.org/2000/svg">
<path d="M15.1719 9.33588C15.1719 9.98692 15.084 10.6022 14.9082 11.1816C14.7389 11.7545 14.4948 12.2753 14.1758 12.7441C13.8633 13.2128 13.4824 13.623 13.0332 13.9746C12.5905 14.3261 12.0957 14.6028 11.5488 14.8046L14.5176 17.1581H10.8359L8.39453 15.1953H5.89453C5.05469 15.1953 4.27669 15.052 3.56055 14.7656C2.8444 14.4726 2.22591 14.0657 1.70508 13.5449C1.18424 13.024 0.774089 12.4055 0.474609 11.6894C0.181641 10.9732 0.0351562 10.1887 0.0351562 9.33588V6.6601C0.0351562 5.81374 0.181641 5.03249 0.474609 4.31635C0.774089 3.59369 1.18424 2.9752 1.70508 2.46088C2.22591 1.94005 2.8444 1.53314 3.56055 1.24018C4.27669 0.947207 5.05469 0.800722 5.89453 0.800722H9.33203C10.1719 0.800722 10.9466 0.947207 11.6562 1.24018C12.3724 1.53314 12.9909 1.94005 13.5117 2.46088C14.0326 2.9752 14.4395 3.59369 14.7324 4.31635C15.0254 5.03249 15.1719 5.81374 15.1719 6.6601V9.33588ZM12.6328 6.6601C12.6328 6.1588 12.5514 5.70632 12.3887 5.30268C12.2324 4.89252 12.0078 4.54421 11.7148 4.25775C11.4284 3.96478 11.0801 3.74018 10.6699 3.58393C10.2663 3.42116 9.82031 3.33978 9.33203 3.33978H5.89453C5.39974 3.33978 4.94727 3.42116 4.53711 3.58393C4.13346 3.74018 3.78516 3.96478 3.49219 4.25775C3.19922 4.54421 2.97135 4.89252 2.80859 5.30268C2.65234 5.70632 2.57422 6.1588 2.57422 6.6601V9.33588C2.57422 9.83718 2.65234 10.2929 2.80859 10.7031C2.97135 11.1067 3.19922 11.455 3.49219 11.748C3.78516 12.0344 4.13346 12.2591 4.53711 12.4218C4.94727 12.5781 5.39974 12.6562 5.89453 12.6562H9.3125C9.80729 12.6562 10.2565 12.5781 10.6602 12.4218C11.0703 12.2591 11.4219 12.0344 11.7148 11.748C12.0078 11.455 12.2324 11.1067 12.3887 10.7031C12.5514 10.2929 12.6328 9.83718 12.6328 9.33588V6.6601Z" fill="white"/>
<path d="M31.4023 13.7206C31.4023 13.9029 31.3698 14.0722 31.3047 14.2285C31.2396 14.3847 31.1484 14.5214 31.0312 14.6386C30.9141 14.7493 30.7773 14.8372 30.6211 14.9023C30.4648 14.9674 30.2988 14.9999 30.123 14.9999H24.4004C23.86 14.9999 23.3132 14.9413 22.7598 14.8242C22.2064 14.707 21.6693 14.5279 21.1484 14.2871C20.6341 14.0397 20.1491 13.7272 19.6934 13.3496C19.2376 12.9719 18.8372 12.526 18.4922 12.0117C18.1536 11.4908 17.8867 10.8984 17.6914 10.2343C17.4961 9.56374 17.3984 8.8183 17.3984 7.99799V0.996035H19.9375V7.99799C19.9375 8.71413 20.0352 9.3196 20.2305 9.81439C20.4323 10.3092 20.6862 10.7226 20.9922 11.0546C21.2982 11.3867 21.6335 11.6471 21.998 11.8359C22.3626 12.0247 22.7077 12.1647 23.0332 12.2558C23.3652 12.3469 23.6549 12.4055 23.9023 12.4316C24.1562 12.4511 24.3223 12.4609 24.4004 12.4609H28.8633V0.996035H31.4023V13.7206Z" fill="white"/>
<path d="M48.1016 14.9999H45.5625V11.5624H36.6367V14.9999H34.0977V7.99799C34.0977 6.97585 34.2734 6.0351 34.625 5.17572C34.9766 4.31635 35.4648 3.57741 36.0898 2.95893C36.7148 2.34044 37.4538 1.85867 38.3066 1.51361C39.1595 1.16856 40.0905 0.996035 41.0996 0.996035H46.8223C46.998 0.996035 47.1641 1.02859 47.3203 1.09369C47.4766 1.1588 47.6133 1.24994 47.7305 1.36713C47.8477 1.48432 47.9388 1.62103 48.0039 1.77728C48.069 1.93353 48.1016 2.09955 48.1016 2.27533V14.9999ZM36.6367 9.02338H45.5625V3.5351H41.0996C41.0215 3.5351 40.8555 3.54812 40.6016 3.57416C40.3542 3.59369 40.0645 3.64903 39.7324 3.74018C39.4069 3.83132 39.0618 3.9713 38.6973 4.1601C38.3327 4.3489 37.9974 4.60932 37.6914 4.94135C37.3854 5.27338 37.1315 5.69005 36.9297 6.19135C36.7344 6.68614 36.6367 7.28835 36.6367 7.99799V9.02338Z" fill="white"/>
<path d="M65.0547 13.916C65.0547 14.0982 65.0189 14.2675 64.9473 14.4238C64.8822 14.58 64.791 14.7167 64.6738 14.8339C64.5631 14.9446 64.4297 15.0325 64.2734 15.0976C64.1172 15.1627 63.9512 15.1953 63.7754 15.1953C63.6191 15.1953 63.4596 15.166 63.2969 15.1074C63.1406 15.0488 63.0007 14.9544 62.877 14.8242L53.5996 5.13666V14.9999H51.0605V2.08002C51.0605 1.8196 51.1322 1.58523 51.2754 1.37689C51.4251 1.16205 51.6139 1.00255 51.8418 0.898379C52.0827 0.800722 52.3301 0.777936 52.584 0.830019C52.8379 0.875592 53.056 0.99278 53.2383 1.18158L62.5156 10.8593V0.996035H65.0547V13.916Z" fill="white"/>
<path d="M80.6699 3.5351H75.0742V14.9999H72.5352V3.5351H66.9297V0.996035H80.6699V3.5351Z" fill="white"/>
<path d="M96.2656 13.7206C96.2656 13.9029 96.2331 14.0722 96.168 14.2285C96.1029 14.3847 96.0117 14.5214 95.8945 14.6386C95.7773 14.7493 95.6406 14.8372 95.4844 14.9023C95.3281 14.9674 95.1621 14.9999 94.9863 14.9999H89.2637C88.7233 14.9999 88.1764 14.9413 87.623 14.8242C87.0697 14.707 86.5326 14.5279 86.0117 14.2871C85.4974 14.0397 85.0124 13.7272 84.5566 13.3496C84.1009 12.9719 83.7005 12.526 83.3555 12.0117C83.0169 11.4908 82.75 10.8984 82.5547 10.2343C82.3594 9.56374 82.2617 8.8183 82.2617 7.99799V0.996035H84.8008V7.99799C84.8008 8.71413 84.8984 9.3196 85.0938 9.81439C85.2956 10.3092 85.5495 10.7226 85.8555 11.0546C86.1615 11.3867 86.4967 11.6471 86.8613 11.8359C87.2259 12.0247 87.571 12.1647 87.8965 12.2558C88.2285 12.3469 88.5182 12.4055 88.7656 12.4316C89.0195 12.4511 89.1855 12.4609 89.2637 12.4609H93.7266V0.996035H96.2656V13.7206Z" fill="white"/>
<path d="M115.523 14.9999H112.965V6.6601L108.463 14.58C108.352 14.7818 108.196 14.9348 107.994 15.039C107.799 15.1432 107.587 15.1953 107.359 15.1953C107.138 15.1953 106.93 15.1432 106.734 15.039C106.546 14.9348 106.396 14.7818 106.285 14.58L101.764 6.6601V14.9999H99.2246V2.08002C99.2246 1.78705 99.3092 1.52663 99.4785 1.29877C99.6543 1.0709 99.8822 0.91791 100.162 0.839785C100.299 0.807233 100.436 0.797467 100.572 0.810488C100.709 0.816999 100.839 0.846295 100.963 0.898379C101.093 0.943952 101.21 1.01231 101.314 1.10346C101.419 1.18809 101.507 1.29226 101.578 1.41596L107.359 11.4648L113.141 1.41596C113.29 1.16856 113.495 0.99278 113.756 0.888613C114.023 0.784446 114.299 0.76817 114.586 0.839785C114.859 0.91791 115.084 1.0709 115.26 1.29877C115.436 1.52663 115.523 1.78705 115.523 2.08002V14.9999Z" fill="white"/>
<path d="M138.443 10.8788C138.443 11.3801 138.378 11.8326 138.248 12.2363C138.124 12.6334 137.958 12.985 137.75 13.291C137.542 13.5969 137.298 13.8574 137.018 14.0722C136.738 14.2871 136.448 14.4628 136.148 14.5996C135.849 14.7363 135.543 14.8372 135.23 14.9023C134.924 14.9674 134.635 14.9999 134.361 14.9999H124.566V12.4609H134.361C134.85 12.4609 135.227 12.3176 135.494 12.0312C135.768 11.7447 135.904 11.3606 135.904 10.8788C135.904 10.6445 135.868 10.4296 135.797 10.2343C135.725 10.039 135.621 9.86973 135.484 9.7265C135.354 9.58327 135.191 9.4726 134.996 9.39447C134.807 9.31635 134.596 9.27728 134.361 9.27728H128.521C128.111 9.27728 127.669 9.20567 127.193 9.06244C126.718 8.9127 126.275 8.67507 125.865 8.34955C125.462 8.02403 125.123 7.5976 124.85 7.07025C124.583 6.54291 124.449 5.89838 124.449 5.13666C124.449 4.37494 124.583 3.73366 124.85 3.21283C125.123 2.68549 125.462 2.25906 125.865 1.93353C126.275 1.6015 126.718 1.36387 127.193 1.22064C127.669 1.0709 128.111 0.996035 128.521 0.996035H137.164V3.5351H128.521C128.04 3.5351 127.662 3.68158 127.389 3.97455C127.122 4.26752 126.988 4.65489 126.988 5.13666C126.988 5.62494 127.122 6.01231 127.389 6.29877C127.662 6.57872 128.04 6.71869 128.521 6.71869H134.381C134.654 6.7252 134.944 6.76426 135.25 6.83588C135.556 6.90098 135.859 7.00515 136.158 7.14838C136.464 7.29161 136.754 7.4739 137.027 7.69525C137.301 7.9101 137.542 8.17051 137.75 8.4765C137.965 8.78249 138.134 9.13406 138.258 9.53119C138.382 9.92833 138.443 10.3775 138.443 10.8788Z" fill="white"/>
<path d="M153.756 5.68354C153.756 6.26296 153.681 6.78054 153.531 7.23627C153.388 7.692 153.196 8.09564 152.955 8.44721C152.714 8.79226 152.431 9.08848 152.105 9.33588C151.786 9.58327 151.454 9.78835 151.109 9.95111C150.764 10.1074 150.413 10.2213 150.055 10.2929C149.703 10.3645 149.371 10.4003 149.059 10.4003H148.033V14.9999H145.475V10.4003H144.459C144.146 10.4003 143.811 10.3645 143.453 10.2929C143.102 10.2213 142.75 10.1074 142.398 9.95111C142.053 9.78835 141.721 9.58327 141.402 9.33588C141.083 9.08848 140.8 8.79226 140.553 8.44721C140.312 8.09564 140.117 7.692 139.967 7.23627C139.824 6.77403 139.752 6.25645 139.752 5.68354V0.996035H142.291V5.68354C142.291 6.01557 142.343 6.31505 142.447 6.58197C142.551 6.84239 142.698 7.067 142.887 7.2558C143.076 7.4446 143.303 7.59109 143.57 7.69525C143.844 7.79291 144.146 7.84174 144.479 7.84174H149.059C149.299 7.80268 149.547 7.75385 149.801 7.69525C150.055 7.63015 150.286 7.52273 150.494 7.37299C150.702 7.22325 150.875 7.01492 151.012 6.74799C151.148 6.48106 151.217 6.12624 151.217 5.68354V0.996035H153.756V5.68354Z" fill="white"/>
<path d="M169.498 10.8788C169.498 11.3801 169.433 11.8326 169.303 12.2363C169.179 12.6334 169.013 12.985 168.805 13.291C168.596 13.5969 168.352 13.8574 168.072 14.0722C167.792 14.2871 167.503 14.4628 167.203 14.5996C166.904 14.7363 166.598 14.8372 166.285 14.9023C165.979 14.9674 165.689 14.9999 165.416 14.9999H155.621V12.4609H165.416C165.904 12.4609 166.282 12.3176 166.549 12.0312C166.822 11.7447 166.959 11.3606 166.959 10.8788C166.959 10.6445 166.923 10.4296 166.852 10.2343C166.78 10.039 166.676 9.86973 166.539 9.7265C166.409 9.58327 166.246 9.4726 166.051 9.39447C165.862 9.31635 165.65 9.27728 165.416 9.27728H159.576C159.166 9.27728 158.723 9.20567 158.248 9.06244C157.773 8.9127 157.33 8.67507 156.92 8.34955C156.516 8.02403 156.178 7.5976 155.904 7.07025C155.637 6.54291 155.504 5.89838 155.504 5.13666C155.504 4.37494 155.637 3.73366 155.904 3.21283C156.178 2.68549 156.516 2.25906 156.92 1.93353C157.33 1.6015 157.773 1.36387 158.248 1.22064C158.723 1.0709 159.166 0.996035 159.576 0.996035H168.219V3.5351H159.576C159.094 3.5351 158.717 3.68158 158.443 3.97455C158.176 4.26752 158.043 4.65489 158.043 5.13666C158.043 5.62494 158.176 6.01231 158.443 6.29877C158.717 6.57872 159.094 6.71869 159.576 6.71869H165.436C165.709 6.7252 165.999 6.76426 166.305 6.83588C166.611 6.90098 166.913 7.00515 167.213 7.14838C167.519 7.29161 167.809 7.4739 168.082 7.69525C168.355 7.9101 168.596 8.17051 168.805 8.4765C169.02 8.78249 169.189 9.13406 169.312 9.53119C169.436 9.92833 169.498 10.3775 169.498 10.8788Z" fill="white"/>
<path d="M184.107 3.5351H178.512V14.9999H175.973V3.5351H170.367V0.996035H184.107V3.5351Z" fill="white"/>
<path d="M197.496 9.27728H189.479V6.71869H197.496V9.27728ZM198.639 14.9999H189.479C189.127 14.9999 188.743 14.9381 188.326 14.8144C187.91 14.6907 187.522 14.4889 187.164 14.2089C186.812 13.9225 186.516 13.5546 186.275 13.1054C186.041 12.6497 185.924 12.093 185.924 11.4355V2.27533C185.924 2.09955 185.956 1.93353 186.021 1.77728C186.087 1.62103 186.174 1.48432 186.285 1.36713C186.402 1.24994 186.539 1.1588 186.695 1.09369C186.852 1.02859 187.021 0.996035 187.203 0.996035H198.639V3.5351H188.463V11.4355C188.463 11.7675 188.551 12.0214 188.727 12.1972C188.902 12.373 189.16 12.4609 189.498 12.4609H198.639V14.9999Z" fill="white"/>
<path d="M217.398 14.9999H214.84V6.6601L210.338 14.58C210.227 14.7818 210.071 14.9348 209.869 15.039C209.674 15.1432 209.462 15.1953 209.234 15.1953C209.013 15.1953 208.805 15.1432 208.609 15.039C208.421 14.9348 208.271 14.7818 208.16 14.58L203.639 6.6601V14.9999H201.1V2.08002C201.1 1.78705 201.184 1.52663 201.354 1.29877C201.529 1.0709 201.757 0.91791 202.037 0.839785C202.174 0.807233 202.311 0.797467 202.447 0.810488C202.584 0.816999 202.714 0.846295 202.838 0.898379C202.968 0.943952 203.085 1.01231 203.189 1.10346C203.294 1.18809 203.382 1.29226 203.453 1.41596L209.234 11.4648L215.016 1.41596C215.165 1.16856 215.37 0.99278 215.631 0.888613C215.898 0.784446 216.174 0.76817 216.461 0.839785C216.734 0.91791 216.959 1.0709 217.135 1.29877C217.311 1.52663 217.398 1.78705 217.398 2.08002V14.9999Z" fill="white"/>
</svg>
